<svg xmlns="http://www.w3.org/2000/svg" version="1.1" xmlns:xlink="http://www.w3.org/1999/xlink" xmlns:svgjs="http://svgjs.dev/svgjs" width="1000" height="209" viewBox="0 0 1000 209"><g transform="matrix(1,0,0,1,-0.6060593653324418,-0.5778761247000261)"><svg viewBox="0 0 396 83" data-background-color="#ffffff" preserveAspectRatio="xMidYMid meet" height="209" width="1000" xmlns="http://www.w3.org/2000/svg" xmlns:xlink="http://www.w3.org/1999/xlink"><g id="tight-bounds" transform="matrix(1,0,0,1,0.23999950867164443,0.2294914753593389)"><svg viewBox="0 0 395.52 82.54101704928132" height="82.54101704928132" width="395.52"><g><svg viewBox="0 0 395.52 82.54101704928132" height="82.54101704928132" width="395.52"><g><svg viewBox="0 0 395.52 82.54101704928132" height="82.54101704928132" width="395.52"><g><svg viewBox="0 0 523.4073409866788 109.22980950672648" height="82.54101704928132" width="395.52"><g transform="matrix(1,0,0,1,127.88734098667882,15.096160358744399)"><svg viewBox="0 0 395.52 79.03748878923768" height="79.03748878923768" width="395.52"><g id="textblocktransform"><svg viewBox="0 0 395.52 79.03748878923768" height="79.03748878923768" width="395.52" id="textblock"><g><svg viewBox="0 0 395.52 79.03748878923768" height="79.03748878923768" width="395.52"><g transform="matrix(1,0,0,1,0,0)"><svg width="395.52" viewBox="1.850000023841858 -35.20000076293945 178.38999938964844 35.650001525878906" height="79.03748878923768" data-palette-color="#3d3839"><path d="M35.75-24.75L28.9-24.75Q27.55-27.35 25.15-28.68 22.75-30 19.6-30L19.6-30Q16.15-30 13.45-28.45 10.75-26.9 9.22-24.05 7.7-21.2 7.7-17.45L7.7-17.45Q7.7-13.7 9.22-10.83 10.75-7.95 13.45-6.4 16.15-4.85 19.6-4.85L19.6-4.85Q24.25-4.85 27.15-7.45 30.05-10.05 30.7-14.5L30.7-14.5 17.65-14.5 17.65-19.05 36.8-19.05 36.8-14.6Q36.25-10.55 33.93-7.15 31.6-3.75 27.88-1.73 24.15 0.3 19.6 0.3L19.6 0.3Q14.7 0.3 10.65-1.98 6.6-4.25 4.23-8.3 1.85-12.35 1.85-17.45L1.85-17.45Q1.85-22.55 4.23-26.6 6.6-30.65 10.68-32.93 14.75-35.2 19.6-35.2L19.6-35.2Q25.15-35.2 29.48-32.48 33.8-29.75 35.75-24.75L35.75-24.75ZM42.4-34.75L48.1-34.75 48.1 0 42.4 0 42.4-34.75ZM67.05 0.35Q63.55 0.35 60.75-0.88 57.95-2.1 56.35-4.35 54.75-6.6 54.75-9.6L54.75-9.6 60.85-9.6Q61.05-7.35 62.62-5.9 64.2-4.45 67.05-4.45L67.05-4.45Q70-4.45 71.65-5.88 73.3-7.3 73.3-9.55L73.3-9.55Q73.3-11.3 72.27-12.4 71.25-13.5 69.72-14.1 68.2-14.7 65.5-15.4L65.5-15.4Q62.1-16.3 59.97-17.23 57.85-18.15 56.35-20.1 54.85-22.05 54.85-25.3L54.85-25.3Q54.85-28.3 56.35-30.55 57.85-32.8 60.55-34 63.25-35.2 66.8-35.2L66.8-35.2Q71.85-35.2 75.07-32.68 78.3-30.15 78.65-25.75L78.65-25.75 72.35-25.75Q72.2-27.65 70.55-29 68.9-30.35 66.2-30.35L66.2-30.35Q63.75-30.35 62.2-29.1 60.65-27.85 60.65-25.5L60.65-25.5Q60.65-23.9 61.62-22.88 62.6-21.85 64.1-21.25 65.6-20.65 68.2-19.95L68.2-19.95Q71.65-19 73.82-18.05 76-17.1 77.52-15.13 79.05-13.15 79.05-9.85L79.05-9.85Q79.05-7.2 77.62-4.85 76.2-2.5 73.47-1.07 70.75 0.35 67.05 0.35L67.05 0.35ZM114.34-34.8L114.34 0 108.64 0 91.49-25.95 91.49 0 85.79 0 85.79-34.8 91.49-34.8 108.64-8.9 108.64-34.8 114.34-34.8ZM119.94-13.9Q119.94-18.05 121.67-21.25 123.39-24.45 126.37-26.23 129.34-28 132.94-28L132.94-28Q136.19-28 138.62-26.73 141.04-25.45 142.49-23.55L142.49-23.55 142.49-27.55 148.24-27.55 148.24 0 142.49 0 142.49-4.1Q141.04-2.15 138.54-0.85 136.04 0.45 132.84 0.45L132.84 0.45Q129.29 0.45 126.34-1.38 123.39-3.2 121.67-6.48 119.94-9.75 119.94-13.9L119.94-13.9ZM142.49-13.8Q142.49-16.65 141.32-18.75 140.14-20.85 138.24-21.95 136.34-23.05 134.14-23.05L134.14-23.05Q131.94-23.05 130.04-21.98 128.14-20.9 126.97-18.82 125.79-16.75 125.79-13.9L125.79-13.9Q125.79-11.05 126.97-8.9 128.14-6.75 130.07-5.63 131.99-4.5 134.14-4.5L134.14-4.5Q136.34-4.5 138.24-5.6 140.14-6.7 141.32-8.83 142.49-10.95 142.49-13.8L142.49-13.8ZM158.59-27.55L166.39-5.1 174.19-27.55 180.24-27.55 169.74 0 162.94 0 152.49-27.55 158.59-27.55Z" opacity="1" transform="matrix(1,0,0,1,0,0)" fill="#3d3839" class="wordmark-text-0" data-fill-palette-color="primary" id="text-0"></path></svg></g></svg></g></svg></g></svg></g><g><svg viewBox="0 0 109.22848678327075 109.22980950672648" height="109.22980950672648" width="109.22848678327075"><g><svg xmlns="http://www.w3.org/2000/svg" xmlns:xlink="http://www.w3.org/1999/xlink" version="1.1" x="0" y="0" viewBox="17.55424690246582 17.55376625061035 64.89244842529297 64.89323425292969" enable-background="new 0 0 100 100" xml:space="preserve" height="109.22980950672648" width="109.22848678327075" class="icon-icon-0" data-fill-palette-color="accent" id="icon-0"><path fill-rule="evenodd" clip-rule="evenodd" d="M81.86 18.14c-0.535-0.535-1.325-0.724-2.045-0.483L18.923 37.904c-0.799 0.266-1.346 1.002-1.368 1.844-0.023 0.841 0.483 1.606 1.267 1.915l28.352 11.164 11.164 28.352c0.302 0.767 1.041 1.268 1.861 1.268 0.018 0 0.036 0 0.054-0.001 0.842-0.022 1.578-0.569 1.844-1.368l20.248-60.893C82.583 19.467 82.396 18.675 81.86 18.14zM25.415 39.96l51.874-17.249-27.16 27.16c-0.192-0.192-0.423-0.346-0.682-0.447L25.415 39.96z" fill="#ff4136" data-fill-palette-color="accent"></path></svg></g></svg></g></svg></g></svg></g></svg></g><defs></defs></svg><rect width="395.52" height="82.54101704928132" fill="none" stroke="none" visibility="hidden"></rect></g></svg></g></svg>
